subject01_squat_2019-12-23_grf.mot
version=1
nRows=37
nColumns=19
inDegrees=yes
endheader
time	ground_force_vx	ground_force_vy	ground_force_vz	ground_force_px	ground_force_py	ground_force_pz	1_ground_force_vx	1_ground_force_vy	1_ground_force_vz	1_ground_force_px	1_ground_force_py	1_ground_force_pz	ground_torque_x	ground_torque_y	ground_torque_z	1_ground_torque_x	1_ground_torque_y	1_ground_torque_z
10.88	16.31576442981301	175.05235916113722	-4.625265218666557	0.28796798819030645	0.0	0.283882219585598	24.02611431784256	219.4284457416705	-0.7900057663264473	0.6980433873742261	0.0	0.2698550065923809	6.003040813427001	-6.6682452032989525	2.4668652748294235	4.402206610836891	11.427074151841412	-1.0729590032927045
10.89	16.50562118241241	168.27469601191646	-4.031561952201723	0.28955405751967506	0.0	0.28701262309694653	27.218471941972645	229.1344075525284	1.802373889272026	0.6972238541825934	0.0	0.2714287820263543	6.284379374681459	-6.676360015634604	2.4061863582618903	4.994100623601405	12.132513118461747	-1.2695663669312038
10.9	16.780513835224017	162.55578949407894	-3.5233076623938	0.2912522970752876	0.0	0.2903389878425469	30.696592592261517	241.041234556579	3.9396919406392588	0.6963805426827672	0.0	0.2732702029181326	6.567613388251412	-6.712164973467081	2.355636065009907	5.699325995367707	12.960411121004709	-1.4763472856593058
10.91	16.885357401540798	157.38237129455294	-3.258683270064116	0.29298681002697036	0.0	0.29377300112880245	33.64740333921388	251.727222502818	4.916535062635384	0.6955579463629865	0.0	0.27534305108440726	6.847694282816694	-6.7515356511826505	2.346498025347692	6.434120340220358	13.720596201689615	-1.6691976785769012
10.92	16.718159842218505	153.01757052636003	-3.305347720324361	0.2946946141655681	0.0	0.2971667866556029	35.4461178298732	258.40919471485984	4.374521150353877	0.6948055347612306	0.0	0.2775385744889555	7.147111901548397	-6.810311654598961	2.3977213677636513	7.106231667869221	14.252933371312029	-1.8235151724713559
10.93	16.34172671435046	150.48695242867683	-3.6264822383088533	0.2963205728905043	0.0	0.3003180644644281	35.832304496508876	259.7168050212612	2.463975025470598	0.6941778497386508	0.0	0.2796731074548547	7.51074919002625	-6.9409090439110335	2.510456188436172	7.634730298572436	14.469476022541386	-1.918777108657872
10.94	15.933523727353892	151.21452504840772	-4.099393372329962	0.29781065511639626	0.0	0.30300165548104296	34.950720053384075	255.94330515595482	-0.20408397879162402	0.6937299851738786	0.0	0.28151472692461144	7.989944005352601	-7.212962898580051	2.667789858340261	7.966247864349873	14.370435775863347	-1.9429893809978314
10.95	15.708610505873814	156.47653399490767	-4.551046461934188	0.29911161739006276	0.0	0.305017086239365	33.255002319337784	248.74827187725282	-2.794914267651315	0.6935062190943092	0.0	0.2828363450015423	8.621786756009351	-7.686761333128145	2.8390128427774557	8.084396370346653	14.032422297412786	-1.8956234516324353
10.96	15.851927736601162	166.90750161245225	-4.794949531793245	0.3001791976450212	0.0	0.3062344908527137	31.326580022256632	240.50031390892278	-4.562457738305617	0.6935246032255934	0.0	0.28347885770739817	9.41198639939587	-8.390504840311037	2.986831367677117	8.011075725105506	13.57776030900812	-1.7876737545743098
10.97	16.47830932181969	182.24401810304178	-4.663613450998909	0.3009898385905777	0.0	0.30662219038809596	29.68411548045549	233.54105856852104	-5.097933685691372	0.6937640716836763	0.0	0.28340117811268306	10.327910720181443	-9.309404307337795	3.075632841427102	7.800096710460941	13.138222855746816	-1.6384118586055247
10.98	17.619466145216943	201.37586366379384	-4.038454615445163	0.3015481984642558	0.0	0.30624756494618904	28.648606106458494	229.61816999469184	-4.421727263421423	0.6941609395884664	0.0	0.28269756137420754	11.304072240932426	-10.38901865417126	3.079032250659162	7.5249202417755585	12.825034106047328	-1.4699782401404526
10.99	19.229019401913664	222.65643565896363	-2.8765384525601014	0.30188546314536796	0.0	0.30525339748511765	28.298188044623895	229.6228250969569	-2.905864870994918	0.6946183665917156	0.0	0.28157404124543683	12.257749803307368	-11.550070465682555	2.9851795576731432	7.26316628241936	12.711896415239623	-1.3021244689172216
11.0	21.198838794993772	244.34467847857232	-1.2249585664327376	0.30204874220296857	0.0	0.3038197496673848	28.510508509550338	233.6363115587969	-1.0824974183374916	0.6950273367487166	0.0	0.2802898046724194	13.109166965301894	-12.70875813924352	2.7984334137520017	7.080801768509242	12.831873320705316	-1.1492250395123422
11.01	23.38425725232643	265.021358046694	0.7888751536246504	0.30208630193954916	0.0	0.30212416856099134	29.061170529927878	241.1840340559149	0.5745864117307841	0.6952934953329042	0.0	0.2790813684683378	13.79941628588448	-13.795636980228709	2.536488300135492	7.018709860987736	13.184058251136008	-1.020074025943874
11.02	25.635105595640322	283.8452056275962	2.9922453129590463	0.30203521279980533	0.0	0.30031123240250357	29.730956001609336	251.5370297646285	1.8130857938364962	0.6953621582216019	0.0	0.27809411317492466	14.300523492504178	-14.76740288462187	2.2236731198150825	7.083863714297004	13.743205408059525	-0.919107281299043
11.03	27.823673752822195	300.5803983980802	5.212079966296533	0.3019162766330145	0.0	0.2984781453854176	30.376873772130924	263.9104529132474	2.6566863438694406	0.6952340320681805	0.0	0.2773444986897393	14.615378253865378	-15.608774416442305	1.883409787107327	7.24682550522121	14.466016908502858	-0.8470877225154391
11.04	29.856462689077986	315.4109730549824	7.3063461355918005	0.3017367760721507	0.0	0.2966779564072222	30.943859771873772	277.4919152765392	3.339398744773558	0.6949663289400931	0.0	0.2767266960367672	14.76922542785421	-16.32501228644525	1.5338133163738188	7.446935421978176	15.291958385663138	-0.8005712582885234
11.05	31.661777283339735	328.62916522833495	9.166601842011513	0.30149769069175525	0.0	0.29493674062375136	31.426658592938598	291.35272512702306	4.152836759116405	0.6946577406368358	0.0	0.2760622153443095	14.797082111020602	-16.928493479730946	1.1887997722380848	7.6058358081690125	16.142194528964154	-0.7715602713650598
11.06	33.16011302199879	340.3248378608008	10.69589139398217	0.30120091858336595	0.0	0.29327631261518206	31.81652985331399	304.37499638209675	5.274232893897674	0.6944207645966564	0.0	0.2751752711928887	14.731887587876741	-17.42470385803401	0.8634984382806375	7.647807923891716	16.92323869785573	-0.7495453230285634
11.07	34.239134099297154	350.2062439062011	11.7836273525304	0.3008533098492082	0.0	0.291731334122315	32.069453430935546	315.3126566056569	6.651912901806072	0.6943498138350167	0.0	0.27396578857664966	14.5969034683021	-17.803572701929873	0.5795027672879441	7.521825466889197	17.539534747605046	-0.7263982502366102
11.08	34.75733680641894	357.6407775488465	12.302935663578824	0.30046631570439114	0.0	0.2903513471992803	32.112709065668305	323.0138560719224	7.9997134597663155	0.6944957150704463	0.0	0.2724516769963582	14.403805916167283	-18.0404776963121	0.36499076222600413	7.217620082442089	17.913344714117287	-0.7015419337326089
11.09	34.58553580175894	361.91372550435324	12.143040127207918	0.30005196877843227	0.0	0.289185050018827	31.880988798207373	326.73430970597224	8.901851639406443	0.6948545940966602	0.0	0.2707645015209121	14.155606947775636	-18.10715356222898	0.2476779349413867	6.769250146657187	18.005486956600585	-0.6834555760509484
11.1	33.67086183683979	362.59157108059503	11.266575826921366	0.2996174692167004	0.0	0.28825348312317917	31.35717653691069	326.41697619613944	8.979437161489512	0.6953729377326878	0.0	0.2691030275842874	13.851631878784172	-17.98754937485676	0.24302247239270425	6.244751844826122	17.829287036729614	-0.6856480502085364
11.11	32.08986118774846	359.8100542601686	9.76284571475755	0.2991612971368759	0.0	0.2875258948649013	30.592225821684405	322.81299532275926	8.044011022328089	0.6959645299591706	0.0	0.2676666849513437	13.49138993148555	-17.69054450440851	0.3432711890369851	5.726301362728361	17.452043595911086	-0.7192141415192091
11.12	30.05855210913024	354.34038659941626	7.865160963846275	0.2986731230577865	0.0	0.2869127515783169	29.691111215568103	317.3644003477911	6.173536194416307	0.6965321920866929	0.0	0.26659672128946466	13.075892788284992	-17.252920091578076	0.5132702482943606	5.288477220764775	16.9818716064688	-0.786499634895578
11.13	27.888189083025	347.4071638441495	5.915559430587652	0.2981382332413846	0.0	0.28628359157528105	28.771583842259258	311.8527164818122	3.6849584296971103	0.6969882058699989	0.0	0.2659454119297902	12.607640983884231	-16.7315228378246	0.6964728493139396	4.981646893088779	16.54221187669114	-0.8792865331203144
11.14	25.903042530345267	340.3612322057365	4.284009500317713	0.2975453856982291	0.0	0.28550594451670375	27.919061202026096	307.9171831809947	1.023698040472669	0.6972698260973847	0.0	0.2656791672967438	12.09183386435752	-16.189451787649023	0.8301800524019095	4.8245379777466795	16.24093393999385	-0.9816327846849822
11.15	24.354203833899657	334.36740307256895	3.269037795084598	0.29689536595100796	0.0	0.28449080559161866	27.163019530700026	306.61642065806296	-1.3786856467958963	0.6973481561680721	0.0	0.26570771060719894	11.540037034966975	-15.683359585447544	0.8645657525204307	4.806561721602318	16.14404966940881	-1.0750329439083364
11.16	23.36266118453576	330.22515349782003	3.0149102513381583	0.2962065195519873	0.0	0.28322568913923074	26.48519119195888	308.203023425123	-3.2234768252495867	0.6972295258609617	0.0	0.2659239347880048	10.97454700210465	-15.2565305957139	0.7778804006621837	4.897608053130038	16.263389616837653	-1.1434040354475226
11.17	22.90894497784041	328.346247613577	3.4754497967326254	0.2955140435571095	0.0	0.2817806996833112	25.849060449271132	312.1951498114906	-4.403952269114752	0.6969494120818774	0.0	0.26623867046417227	10.42965969313222	-14.937860966173305	0.5818263361575865	5.061272776081526	16.562609017050303	-1.1765850854258564
11.18	22.865851825878437	328.83814673503394	4.4382063127947085	0.2948622586358314	0.0	0.2802845237285615	25.229591637335588	317.70213715977354	-4.995634237193059	0.696560524199549	0.0	0.26659954235205485	9.947012517725316	-14.743901571203352	0.3155204263566767	5.266938970537993	16.978557547284407	-1.1719319625322369
11.19	23.055241060693913	331.62103789637194	5.600207650136504	0.2942924768059598	0.0	0.27888012164009174	24.6275705894082	323.85236931222715	-5.191427431407492	0.6961184744426313	0.0	0.2669906147772716	9.565566098714475	-14.681148093139331	0.03114461488491357	5.496878499459464	17.448697145222557	-1.1337875545101956
11.2	23.30526096262541	336.5222164884449	6.667095022726662	0.29383122515792687	0.0	0.27767748102825984	24.06622815629202	330.1315182293066	-5.208302727315896	0.6956693767424589	0.0	0.2674170490068099	9.309854507894688	-14.747254620931033	-0.2229561856397092	5.746488476152152	17.932878703275968	-1.0708566649966127
11.21	23.490270438808924	343.31580397359465	7.440410334188035	0.2934829305918596	0.0	0.2767196681143197	23.577211528677655	336.488641102799	-5.197393993432407	0.6952428851651183	0.0	0.2678840943143165	9.18071206768783	-14.93089703746782	-0.41609121161652374	6.018439295155554	18.420756781632935	-0.9923313580391055
11.22	23.546840748387886	351.70235448837866	7.865663646547196	0.2932285312174298	0.0	0.27597099223931476	23.184192171737024	343.18532560515507	-5.189173624073897	0.6948517546816716	0.0	0.2683806880762456	9.15125662375885	-15.210519813774994	-0.5423480418344366	6.313949652702959	18.923268554758817	-0.9044559804140375
11.23	23.469127710330564	361.2551736390451	8.030544562463973	0.29302928089689956	0.0	0.2753279112431561	22.88925513643001	350.49082853193187	-5.096380696706737	0.6944962168383402	0.0	0.2688748283673655	9.169308972083657	-15.553058639066606	-0.6198801005129454	6.625635668576164	19.454425356264977	-0.809142608867402
11.24	23.292064502919395	371.3861206408361	8.119577969025473	0.2928346126505495	0.0	0.27464792877401223	22.664756476778187	358.39689653266	-4.775970982132833	0.6941697418783911	0.0	0.26932242259067773	9.166426488014821	-15.914821856735358	-0.6832754559034195	6.935768602037811	20.014068422573835	-0.7051461379342375
